Description

Poster: http://cdn.piczend.com/image/qg8px8o7qpjvvmntpcqyrmrbc.jpeg
Release date: 2013
Genre: Action, Adventure, Sci-Fi, Thriller
Plot: A veteran assigned to extract Earth's remaining resources begins to question what he knows about his mission and himself.
--------------------------------
Runtime: N/A
Rating: N/A/10
Votes: N/A
Writer(s)/Director(s): Joseph Kosinski, Karl Gajdusek/Joseph Kosinski
Actors: Tom Cruise, Morgan Freeman, Andrea Riseborough, Olga Kurylenko
Trailer: http://www.imdb.com/video/imdb/vi2833425945/

Screenshots: 
http://cdn.piczend.com/image/ezcxlkwddgfm0d65suvzgncmw.jpeg 
http://cdn.piczend.com/image/sfad4jitlw5lt8ozdrpholai7.jpeg 
http://cdn.piczend.com/image/zfksshlxhpshncsk84t7jjb0z.jpeg 
http://cdn.piczend.com/image/ieainyytjqbgszo7rwlufvszf.jpeg

Mediainfo:
General
Complete name :	Oblivion (2013) HDCAM 496p [Zend]/Oblivion (2013) HDCAM 496p [Zend].mp4
Format :	MPEG-4
Format profile :	Base Media
Codec ID :	isom
File size :	665 MiB
Duration :	57mn 28s
Overall bit rate mode :	Variable
Overall bit rate :	1 618 Kbps
Writing application :	Lavf53.21.1

Video
ID :	1
Format :	AVC
Format/Info :	Advanced Video Codec
Format profile :	Main@L3.1
Format settings, CABAC :	Yes
Format settings, ReFrames :	3 frames
Codec ID :	avc1
Codec ID/Info :	Advanced Video Coding
Duration :	57mn 28s
Bit rate :	1 500 Kbps
Width :	1 392 pixels
Height :	496 pixels
Display aspect ratio :	2.806
Frame rate mode :	Constant
Frame rate :	25.000 fps
Color space :	YUV
Chroma subsampling :	4:2:0
Bit depth :	8 bits
Scan type :	Progressive
Bits/(Pixel*Frame) :	0.087
Stream size :	617 MiB (93%)
Writing library :	x264 core 123 r2189 35cf912
Encoding settings :	cabac=1 / ref=3 / deblock=1:0:0 / analyse=0x1:0x111 / me=hex / subme=7 / psy=1 / psy_rd=1.00:0.00 / mixed_ref=0 / me_range=16 / chroma_me=1 / trellis=1 / 8x8dct=0 / cqm=0 / deadzone=21,11 / fast_pskip=1 / chroma_qp_offset=-2 / threads=6 / sliced_threads=0 / nr=0 / decimate=1 / interlaced=0 / bluray_compat=0 / constrained_intra=0 / bframes=3 / b_pyramid=0 / b_adapt=1 / b_bias=0 / direct=1 / weightb=0 / open_gop=1 / weightp=2 / keyint=250 / keyint_min=25 / scenecut=40 / intra_refresh=0 / rc_lookahead=40 / rc=abr / mbtree=1 / bitrate=1500 / ratetol=1.0 / qcomp=0.60 / qpmin=0 / qpmax=69 / qpstep=4 / ip_ratio=1.25 / aq=1:1.00

Audio
ID :	2
Format :	MPEG Audio
Format version :	Version 1
Format profile :	Layer 3
Mode :	Joint stereo
Mode extension :	MS Stereo
Codec ID :	6B
Duration :	57mn 28s
Bit rate mode :	Variable
Bit rate :	113 Kbps
Minimum bit rate :	32.0 Kbps
Channel(s) :	2 channels
Sampling rate :	44.1 KHz
Compression mode :	Lossy
Delay relative to video :	40ms
Stream size :	46.3 MiB (7%)
Writing library :	LAME3.98r
Encoding settings :	-m j -V 6 -q 2 -lowpass 15.5 --vbr-new -b 32
